# xmcd
#
# Track frame offsets: 
#        150
#        16762
#        34562
#        54404
#        71326
#        89205
#        106021
#        119550
#        131307
#        144494
#        163537
#        179175
#        193459
#        208610
#        226266
#        245882
#        263336
#        279124
#        295406
#        309765
#        325816
#
# Disc length: 4533 seconds
#
# Revision: 1
# Processed by: cddbd v1.5.2PL0 Copyright (c) Steve Scherf et al.
# Submitted via: ExactAudioCopyFreeDBPlugin 1.0
#
DISCID=2c11b315
DTITLE=Various Artist - Country Pop and Strassenschlager CD2
DYEAR=2011
DGENRE=Country
TTITLE0=Lou Bega - Conchita
TTITLE1=Windflowers - The Moment Love Grows Cold
TTITLE2=Johnny Logan - On The Other Side Of Midnight
TTITLE3=Dagmar - The Lady Of Country - Ich würd' es trotzdem wieder tu
TTITLE3=n
TTITLE4=Smokie - For A Few Dollars More (Neuaufnahme 1990)
TTITLE5=Andy Martin - Even Cowgirls Get The Blues
TTITLE6=Katja Kaye - Alles ok
TTITLE7=Dirk Busch - Ich zieh' den Bauch nicht mehr ein
TTITLE8=Chris Norman - Crazy For You
TTITLE9=Herrmann Lammer Meyer - (I'll Come) Runnin' Back To You
TTITLE10=Michael Heck - Rocky Mountain Lady
TTITLE11=Jonny Hill - Wer wie ich viel unterwegs war
TTITLE12=Tol and Tol - The Outlaw
TTITLE13=Doris Ackermann - When I Come Back Home
TTITLE14=Jackson Mackay - Tagalong
TTITLE15=Peter Sebastian - Zum älter werden hab' ich keine Zeit
TTITLE16=Mary Roos - Rodeo
TTITLE17=George Hug - The Same Ole Way
TTITLE18=Gunter Gabriel - Hey Boss, ich brauch' mehr Geld (1987er Vers
TTITLE18=ion)
TTITLE19=Volker Lichtenbrink - Leben so wie ich es mag
TTITLE20=Dieter Hallervorden - Ich bin der Asphalt-Cowboy von Dortmund
TTITLE20=Aplerbek
EXTD=
EXTT0=
EXTT1=
EXTT2=
EXTT3=
EXTT4=
EXTT5=
EXTT6=
EXTT7=
EXTT8=
EXTT9=
EXTT10=
EXTT11=
EXTT12=
EXTT13=
EXTT14=
EXTT15=
EXTT16=
EXTT17=
EXTT18=
EXTT19=
EXTT20=
PLAYORDER=
